<svg xmlns="http://www.w3.org/2000/svg" viewBox="0 0 100 100" role="img" aria-label="white pawn"><defs>
  <linearGradient id="white-pawn-g" x1="0" y1="0" x2="1" y2="1"><stop offset="0" stop-color="#ffffff"/><stop offset=".24" stop-color="#fffdf5"/><stop offset=".68" stop-color="#d8d4c8"/><stop offset="1" stop-color="#aaa69b"/></linearGradient>
  <linearGradient id="white-pawn-g-edge" x1="0" y1="0" x2="0" y2="1"><stop stop-color="#fffdf5"/><stop offset="1" stop-color="#d8d4c8"/></linearGradient>
  <filter id="sh"><feDropShadow dx="0" dy="5" stdDeviation="3" flood-opacity=".35"/></filter>
 </defs><g><circle cx="50" cy="27" r="12" fill="url(#white-pawn-g)" stroke="#8b877d" stroke-width="1.5" filter="url(#sh)"/>
  <path d="M40 39 Q43 47 38 53 C34 58 32 63 35 68 Q50 73 65 68 C68 63 66 58 62 53 Q57 47 60 39Z" fill="url(#white-pawn-g)" stroke="#8b877d" stroke-width="1.5" filter="url(#sh)"/>
  <path d="M34 67 Q50 72 66 67 L70 74 Q50 82 30 74Z" fill="url(#white-pawn-g)" stroke="#8b877d" stroke-width="1.2"/><ellipse cx="50" cy="91" rx="35" ry="6" fill="#8b877d" opacity=".38"/>
 <path d="M17 86 C18 79 24 76 30 74 L35 70 L65 70 L70 74 C76 76 82 79 83 86 Q50 94 17 86Z" fill="url(#white-pawn-g-edge)" stroke="#8b877d" stroke-width="1.2"/>
 <path d="M27 74 C30 68 34 65 38 62 L62 62 C66 65 70 68 73 74 Q50 80 27 74Z" fill="url(#white-pawn-g)" stroke="#8b877d" stroke-width="1.2"/></g></svg>