<svg xmlns="http://www.w3.org/2000/svg" viewBox="0 0 100 100" role="img" aria-label="black knight"><defs>
  <linearGradient id="black-knight-g" x1="0" y1="0" x2="1" y2="1"><stop offset="0" stop-color="#5b6b91"/><stop offset=".24" stop-color="#27324f"/><stop offset=".68" stop-color="#0c1328"/><stop offset="1" stop-color="#11182d"/></linearGradient>
  <linearGradient id="black-knight-g-edge" x1="0" y1="0" x2="0" y2="1"><stop stop-color="#27324f"/><stop offset="1" stop-color="#0c1328"/></linearGradient>
  <filter id="sh"><feDropShadow dx="0" dy="5" stdDeviation="3" flood-opacity=".35"/></filter>
 </defs><g><path d="M34 69 Q37 60 42 55 C36 47 34 38 38 29 C42 20 50 16 60 17 L69 25 L61 28 L68 36 L61 39 Q61 49 66 58 L72 69Z" fill="url(#black-knight-g)" stroke="#050914" stroke-width="1.6" filter="url(#sh)"/>
  <path d="M43 28 Q49 23 57 23 L52 31 L45 35" fill="none" stroke="#050914" stroke-width="1.4" opacity=".8"/>
  <circle cx="56" cy="28" r="1.8" fill="#050914"/><ellipse cx="50" cy="91" rx="35" ry="6" fill="#050914" opacity=".38"/>
 <path d="M17 86 C18 79 24 76 30 74 L35 70 L65 70 L70 74 C76 76 82 79 83 86 Q50 94 17 86Z" fill="url(#black-knight-g-edge)" stroke="#050914" stroke-width="1.2"/>
 <path d="M27 74 C30 68 34 65 38 62 L62 62 C66 65 70 68 73 74 Q50 80 27 74Z" fill="url(#black-knight-g)" stroke="#050914" stroke-width="1.2"/></g></svg>